<svg width="84" height="84" viewBox="0 0 84 84" fill="none" xmlns="http://www.w3.org/2000/svg">
<path d="M60.6281 28.411L30.2946 28.41C29.5243 28.4099 28.943 29.1089 29.0833 29.8663L30.6632 38.3939L31.51 43.1246L31.74 44.4492C32.0409 46.1997 33.504 47.4971 35.2708 47.6437L35.6054 47.6575H56.5912C58.2349 47.6575 59.6937 46.6498 60.2907 45.0644L60.3984 44.7398L64.4043 34.1792C65.125 31.6601 63.2225 28.6438 60.898 28.4238L60.6281 28.411Z" fill="url(#paint0_linear_7_3442)"/>
<path d="M19.3145 18.6279C21.1476 18.6279 24.9513 19.5903 25.5012 23.4398C25.5762 23.9649 25.6861 24.6663 25.823 25.5021M56.4349 54.3735C52.0812 54.3735 42.1366 54.3735 37.1872 54.3735C32.2379 54.3735 30.084 49.3325 29.6257 46.8119C29.3796 45.4829 29.0742 43.824 28.741 42M28.741 42C27.7347 36.4914 26.4742 29.4777 25.823 25.5021M28.741 42C29.6831 45.8496 34.7644 46.8119 37.1872 46.8119C39.0203 46.8119 44.0614 46.8119 49.5607 46.8119C55.06 46.8119 56.4349 44.0623 57.1223 42.6875C58.4971 39.4795 61.2468 32.3762 61.2468 29.6266C61.2468 26.8769 59.1845 25.5021 55.7474 25.5021H25.823" stroke="#1A1A1A" stroke-width="2.46377" stroke-linecap="round"/>
<path d="M37.3306 61.2475C37.3306 62.8451 36.0355 64.1401 34.438 64.1401C32.8404 64.1401 31.5454 62.8451 31.5454 61.2475C31.5454 59.65 32.8404 58.3549 34.438 58.3549C36.0355 58.3549 37.3306 59.65 37.3306 61.2475Z" stroke="#1A1A1A" stroke-width="2.46377"/>
<path d="M57.9526 61.2475C57.9526 62.8451 56.6576 64.1401 55.06 64.1401C53.4625 64.1401 52.1674 62.8451 52.1674 61.2475C52.1674 59.65 53.4625 58.3549 55.06 58.3549C56.6576 58.3549 57.9526 59.65 57.9526 61.2475Z" stroke="#1A1A1A" stroke-width="2.46377"/>
<defs>
<linearGradient id="paint0_linear_7_3442" x1="28.8135" y1="28.4099" x2="44.8826" y2="58.2525" gradientUnits="userSpaceOnUse">
<stop stop-color="#00EABF"/>
<stop offset="1" stop-color="#01F685"/>
</linearGradient>
</defs>
</svg>
