<svg width="84" height="84" viewBox="0 0 84 84" fill="none" xmlns="http://www.w3.org/2000/svg">
<path d="M40.6648 44.1308C39.0301 47.8524 37.3601 55.3879 38.0788 60.4192C39.1018 61.8816 41.2286 63.0511 45.9851 62.5755C53.1726 61.8567 56.7959 60.4908 59.9201 58.5774C63.0444 56.664 65.7356 54.1207 67.8224 51.1095C69.9092 48.0983 71.3457 44.6854 72.0404 41.0882C72.735 37.4911 72.6725 33.7887 71.8569 30.217C71.791 29.9287 71.6451 29.6648 71.4359 29.4557C71.2268 29.2465 70.9629 29.1006 70.6746 29.0347C66.712 28.1287 62.5936 28.1514 58.6412 29.101C54.6889 30.0506 51.0097 31.9014 47.8912 34.5087C44.7727 37.116 42.2995 40.4091 40.6648 44.1308Z" fill="url(#paint0_linear_7_3442)" stroke="url(#paint1_linear_7_3442)" stroke-width="2.33899" stroke-miterlimit="10" stroke-linecap="round"/>
<path d="M57.5891 40.3513L40.735 57.2053C39.4509 58.4904 37.9263 59.5097 36.248 60.2052" stroke="white" stroke-width="2" stroke-miterlimit="10" stroke-linecap="round"/>
<path d="M56.589 39.3514L39.735 56.2054C38.4509 57.4904 36.9262 58.5098 35.248 59.2053C33.5698 59.9008 31.7709 60.2587 29.9542 60.2587C28.1376 60.2587 26.3387 59.9008 24.6605 59.2053C22.9822 58.5098 21.4576 57.4904 20.1735 56.2054C17.5812 53.6105 16.125 50.0926 16.125 46.4246C16.125 42.7567 17.5812 39.2388 20.1735 36.6438L31.6479 25.1458" stroke="#1A1A1A" stroke-width="2" stroke-miterlimit="10" stroke-linecap="round"/>
<path d="M35.9616 42.9614C34.327 46.683 32.657 54.2185 33.3757 59.2498C34.3987 60.7122 36.5254 61.8817 41.282 61.406C48.4695 60.6873 52.0927 59.3214 55.217 57.408C58.3412 55.4946 61.0325 52.9513 63.1193 49.9401C65.2061 46.9289 66.6426 43.516 67.3372 39.9188C68.0319 36.3217 67.9694 32.6192 67.1538 29.0476C67.0879 28.7593 66.9419 28.4954 66.7328 28.2863C66.5237 28.0771 66.2598 27.9312 65.9715 27.8653C62.0089 26.9593 57.8905 26.9819 53.9381 27.9315C49.9858 28.8811 46.3065 30.7319 43.1881 33.3392C40.0696 35.9465 37.5963 39.2397 35.9616 42.9614Z" stroke="#1A1A1A" stroke-width="2" stroke-miterlimit="10" stroke-linecap="round"/>
<path d="M25.2578 24.75H32.0739V31.5602" stroke="#1A1A1A" stroke-width="2" stroke-linecap="round" stroke-linejoin="round"/>
<defs>
<linearGradient id="paint0_linear_7_3442" x1="37.9072" y1="28.3716" x2="72.2174" y2="62.9818" gradientUnits="userSpaceOnUse">
<stop stop-color="#00EABF"/>
<stop offset="1" stop-color="#01F685"/>
</linearGradient>
<linearGradient id="paint1_linear_7_3442" x1="37.9072" y1="28.3716" x2="72.2174" y2="62.9818" gradientUnits="userSpaceOnUse">
<stop stop-color="#00EABF"/>
<stop offset="1" stop-color="#01F685"/>
</linearGradient>
</defs>
</svg>
